<svg xmlns="http://www.w3.org/2000/svg" width="232" height="48" viewBox="0 0 232 48">
    <g fill="#0D356C" fill-rule="evenodd">
        <path d="M213.385 13.772h4.718l-.028 7.44h1.025l2.693-7.44h5.105l-3.664 9.83 4.192 10.88h-5.523l-2.717-8.329h-1.11l.027 8.329h-4.718zM197.49 13.772h4.689v7.47h3.357v-7.47h4.687v20.71h-4.687v-8.3h-3.357v8.3h-4.689zM181.147 34.509h4.884l.584-3.58h3.354l.584 3.58h4.882l-4.105-20.706h-6.05l-4.133 20.706zm7.157-14.436l.888 6.302h-1.804l.916-6.302zM168.049 34.482h5.715c1.248 0 6.438-.53 6.465-6.805 0-5.267-4.021-6.186-6.63-6.186h-.86v-2.748h6.354v-4.97h-11.044v20.709zm4.69-4.165v-4.69h.693c.582 0 2.083.027 2.083 2.164 0 2.168-1.5 2.526-2.083 2.526h-.693zM149.433 13.772h4.08l3.603 4.886 3.638-4.886h4.05v20.71H160V21.85l-2.884 3.609-2.884-3.609v12.632h-4.799zM139.526 34.733c5.688 0 7.6-5.333 7.6-10.633 0-5.3-1.912-10.632-7.6-10.632-5.687 0-7.6 5.332-7.6 10.632s1.913 10.633 7.6 10.633m0-5.026c-1.696 0-2.552-1.969-2.552-5.607s.856-5.607 2.552-5.607c1.695 0 2.551 1.97 2.551 5.607 0 3.638-.856 5.607-2.551 5.607M118.022 34.482h4.8v-6.828h1.61c4.744 0 6.216-4.276 6.216-7 0-2.664-1.695-6.882-6.215-6.882h-6.411v20.71zm4.8-16.157h1.138c1.083 0 1.777.666 1.777 2.387 0 2.221-1.167 2.385-1.777 2.385h-1.138v-4.772zM102.179 13.772h13.096v20.71h-4.801V18.769h-3.495v15.713h-4.8zM92.329 21.797c.775 0 2.192-.5 2.192-2.027 0-1.803-1.636-1.917-2.11-1.917-.554 0-1.607.086-2.635.585l-.055-4.5c1.636-.415 2.802-.527 4.188-.527 3.943 0 5.69 2.75 5.69 5.44 0 2.612-1.5 4.19-2.969 4.803v.194c1.415.448 3.302 1.804 3.302 4.97 0 3.916-2.718 6.08-6.216 6.08-1.859-.026-3.08-.276-4.551-1.08l.084-4.306c1.36.585 2.275.64 3.191.64 1.554 0 2.163-1.141 2.163-1.97 0-1.168-.748-1.945-2.385-1.945h-1.942v-4.44h2.053zM73.463 34.482h4.855l.61-3.583h3.358l.582 3.583h4.854l-4.107-20.71h-6.047l-4.105 20.71zm7.13-14.463l.915 6.33h-1.832l.916-6.33zM64.169 13.772h9.845v5.163H69.05v15.547h-4.881z"/>
        <path fill-rule="nonzero" d="M1.2 24.013C1.2 36.575 11.435 46.8 24.016 46.8 36.572 46.8 46.8 36.571 46.8 24.013 46.8 11.432 36.576 1.2 24.016 1.2 11.43 1.2 1.2 11.428 1.2 24.013zm-1.2 0C0 10.765 10.768 0 24.016 0 37.234 0 48 10.765 48 24.013 48 37.234 37.234 48 24.016 48 10.768 48 0 37.234 0 24.013z"/>
        <path d="M16.337 8.31c-.947.41-1.668.857-2.387 1.355 5.797-2.58 12.875-2.413 16.673-.719 1.194.555 1.996.89 2.36 1.553-3.942-1.056-5.634-1.247-8.934-1.166-4.693.085-10.935 1.942-13.32 3.361L9.678 14c3.435-2.032 9.846-3.36 13.4-3.473 3.967-.053 7.045.308 9.877 1.334-.169.72-.529 1.082-1.139 1.445-11.32-1.972-18.008.357-24.057 4.299l-.442 1.303c6.743-4.632 15.009-5.907 22.974-4.52-2.857.999-6.27 1.22-9.128 1.882-2.44.557-3.745.725-6.995 1.81-3.297 1.082-5.244 2.192-6.463 3.608-.583.669-1.027 1.444-1.14 2.274-.051.498-.024.946.143 1.39.134.389.44.777.776 1.166-.387.665-.726 1.528-.167 2.528.249.469.887.94 1.5 1.389l-.171.495c-.083.587-.164 1.279.224 1.86.664 1.055 1.469 1.75 2.745 2.417.196.861.499 1.553 1.165 2.167 1.415 1.302 4.58 3.801 10.21 4.19 4.22.28 7.244-.999 8.383-1.555l1.386-.72c-2.358.942-6.324 1.498-9.574 1.22-4.717-.389-8.93-3.47-9.458-4.359.164.11.387.194.578.278 5.524 2.665 12.654 4.11 21.784.39l.752-.723c-8.3 2.581-15.566 2.5-23.366-1.581.085-.388.252-.727.61-.998 1.996.883 3.913 1.61 6.244 2.078 2.72.501 5.826.614 8.38.501 2.582-.11 7.685-1.388 10.1-2.664.22-.193.33-.524.552-.748-4.713 1.716-10.32 2.524-13.704 2.272-3.302-.248-6.24-.638-10.127-2.413a23.249 23.249 0 0 1 2.302-.78c2.552.78 5.159 1.249 8.24 1.39 3.054.138 10.183-.997 14.677-3.717.141-.39.278-.808.278-.808s-6.243 3.334-13.315 3.334c-3.304 0-5.329-.474-6.825-.834 3.326-.611 7.518-1.112 12.231-2.304 2.386-.613 5.328-2.002 6.661-3.165 1.137-1.03 2.026-2.363 1.722-3.718-.06-.365-.557-1.221-1.168-1.529.583-.75.528-1.389.447-1.94-.058-.423-.252-.89-.499-1.306-.39-.504-.753-.895-1.503-1.336.113-.64.031-1.193-.221-1.721-.582-1-1.634-1.858-3.439-2.774-.083-.363-.307-.835-.693-1.305-2.273-2.249-5.993-3.332-9.13-3.388-.176-.004-.35-.005-.522-.005-3.669 0-6.613.824-8.437 1.675zm17.756 5.552c.28-.306.692-.778.802-1.168.78.5 1.667 1.25 1.776 2.028-.83-.31-1.718-.637-2.578-.86zm.692 3.384c-1.329-.362-2.494-.807-4.052-1.081.947-.364 1.581-.75 2.14-1.196 1.244.33 2.41.75 3.359 1.165-.163.242-1.114 1.121-1.403 1.121a.088.088 0 0 1-.044-.009zm2.416.972c.358-.279.693-.58 1-.945.746.638.968 1.083.61 1.778-.498-.36-1.03-.557-1.61-.833zM8.707 25.103c-2.057-2.832 5.074-4.857 6.436-5.275 3.467-1.03 7.52-1.803 11.183-2.247 2.52-.308 3.856-.027 6.243.61-6.133 1.637-12.184 2.161-17.956 3.857-4.653 1.352-5.887 3.055-5.906 3.055zm1.523 1.358c2.164-1.834 6.577-2.859 8.188-3.22 5.131-1.11 9.905-1.803 11.874-2.302 2.388-.587 4.052-1.139 5.213-1.692.057-.085 1.943.83 2.138 1.05-.637.53-1.523.976-2.497 1.305-2.912 1.056-8.211 2.164-11.013 2.588-2.83.47-5.193.828-8.324 1.657-1.806.476-3.028 1.03-3.916 1.615-.665-.39-1.053-.498-1.663-1zm4.026 2.221c.912-.388 1.912-.695 2.88-.94 4.886-1.2 9.19-1.42 15.127-3.027 2.856-.753 4.938-1.56 6.243-2.554.193-.17.386-.308.582-.473 1.72 2.664-4.744 4.718-9.158 5.666a360.317 360.317 0 0 1-6.938 1.302c-2.881.472-3.83.723-5.826 1.305-.998-.39-1.998-.806-2.91-1.279zm-5.193-.833c.445.28.777.504 1.306.778-.195.166-.446.334-.638.528-.442-.253-.89-.802-.668-1.306zm2.306 2.554a8.253 8.253 0 0 1 1.025-.746c.833.39 1.692.746 2.496 1.109-.584.22-1.11.471-1.55.75a76.061 76.061 0 0 1-1.971-1.113zm-.723 1.36c.472.306.943.555 1.417.807-.194.278-.335.497-.416.778-.695-.585-1.03-1.056-1-1.585z"/>
    </g>
</svg>
