<svg width="30" height="30" viewBox="0 0 30 30" fill="none" xmlns="http://www.w3.org/2000/svg">
<path d="M30 17.9348C30 17.1509 29.7012 16.4204 29.1863 15.8817C29.77 15.2152 30.0675 14.3217 29.9862 13.3917C29.84 11.7339 28.4087 10.4348 26.7262 10.4348H19.005C19.3875 9.22299 20 7.00173 20 5.21738C20 2.38824 17.6963 0 16.25 0C14.9525 0 14.0237 0.763045 13.985 0.794349C13.8362 0.918283 13.75 1.10611 13.75 1.30433V5.72736L10.1487 13.8652L9.99996 13.9448V13.6956C9.99996 13.3356 9.71994 13.0434 9.37494 13.0434H3.12498C1.40127 13.0435 0 14.5057 0 16.3043V26.7391C0 28.5379 1.40127 30 3.12498 30H6.87498C8.22621 30 9.38121 29.1 9.81621 27.8439C10.8562 28.4022 12.2562 28.6957 13.125 28.6957H24.5988C25.96 28.6957 27.1513 27.7383 27.4312 26.4183C27.575 25.7374 27.4913 25.0526 27.2063 24.4578C28.1287 23.9739 28.75 22.9787 28.75 21.8478C28.75 21.3861 28.6488 20.9439 28.4575 20.5448C29.38 20.0596 30 19.0657 30 17.9348ZM27.3638 19.5443C27.1225 19.5744 26.9187 19.7452 26.8413 19.9865C26.765 20.2278 26.8288 20.4926 27.0063 20.6674C27.3238 20.9791 27.5 21.3991 27.5 21.8478C27.5 22.6709 26.9038 23.3622 26.1151 23.4574C25.8738 23.4874 25.67 23.6582 25.5926 23.8996C25.5163 24.1409 25.5801 24.4056 25.7576 24.5804C26.1688 24.9848 26.3338 25.5521 26.2101 26.1365C26.0563 26.8644 25.3788 27.3913 24.5988 27.3913H13.125C12.11 27.3913 10.4075 26.8944 9.8175 26.2774C9.63873 26.0922 9.36873 26.0374 9.13623 26.1365C8.9025 26.237 8.74998 26.4757 8.74998 26.7391C8.74998 27.8179 7.90875 28.6957 6.87498 28.6957H3.12498C2.09121 28.6957 1.24998 27.8179 1.24998 26.7391V16.3043C1.24998 15.2256 2.09121 14.3478 3.12498 14.3478H8.74998V15C8.74998 15.2257 8.86248 15.4356 9.04746 15.5557C9.22998 15.6704 9.45996 15.6822 9.65496 15.583L10.9049 14.9308C11.0312 14.8656 11.1325 14.756 11.1925 14.6217L14.9425 6.14343C14.98 6.05734 14.9999 5.96343 14.9999 5.86951V1.65779C15.26 1.50781 15.7113 1.30433 16.25 1.30433C16.935 1.30433 18.75 3.08085 18.75 5.21738C18.75 7.51305 17.5525 10.8221 17.5413 10.8548C17.4688 11.0544 17.4937 11.28 17.61 11.4574C17.7275 11.6335 17.92 11.7391 18.125 11.7391H26.7262C27.7687 11.7391 28.6537 12.5178 28.7412 13.5118C28.8075 14.2552 28.465 14.9622 27.8512 15.3574C27.66 15.48 27.5463 15.7018 27.555 15.9378C27.5637 16.1739 27.6938 16.3852 27.8937 16.4935C28.4225 16.774 28.75 17.327 28.75 17.9348C28.75 18.7578 28.1538 19.4491 27.3638 19.5443Z" fill="#7C8793"/>
<path d="M9.37478 13.7499C9.02978 13.7499 8.74976 14.0299 8.74976 14.3749V25.6249C8.74976 25.9699 9.02978 26.25 9.37478 26.25C9.71978 26.25 9.99979 25.9699 9.99979 25.6249V14.3749C9.99979 14.0299 9.71978 13.7499 9.37478 13.7499Z" fill="#7C8793"/>
</svg>
