<svg width="50" height="50" viewBox="0 0 50 50" fill="none" xmlns="http://www.w3.org/2000/svg">
<path d="M50 29.8913C50 28.5848 49.5021 27.3674 48.6437 26.4695C49.6167 25.3587 50.1125 23.8695 49.9771 22.3196C49.7333 19.5565 47.3479 17.3913 44.5438 17.3913H31.675C32.3125 15.3717 33.3333 11.6695 33.3333 8.69563C33.3333 3.98041 29.4938 0 27.0833 0C24.9208 0 23.3729 1.27174 23.3083 1.32391C23.0604 1.53047 22.9166 1.84351 22.9166 2.17388V9.5456L16.9146 23.1087L16.6666 23.2413V22.826C16.6666 22.226 16.1999 21.739 15.6249 21.739H5.2083C2.33545 21.7391 0 24.1761 0 27.1739V44.5652C0 47.5631 2.33545 50 5.2083 50H11.4583C13.7104 50 15.6354 48.5 16.3604 46.4065C18.0938 47.337 20.4271 47.8261 21.875 47.8261H40.9979C43.2667 47.8261 45.2521 46.2304 45.7188 44.0305C45.9583 42.8957 45.8188 41.7544 45.3438 40.7631C46.8813 39.9565 47.9167 38.2978 47.9167 36.4131C47.9167 35.6435 47.7479 34.9065 47.4292 34.2413C48.9667 33.4326 50 31.7761 50 29.8913ZM45.6063 32.5739C45.2042 32.6239 44.8646 32.9086 44.7355 33.3108C44.6084 33.7131 44.7146 34.1543 45.0105 34.4456C45.5396 34.9652 45.8334 35.6652 45.8334 36.4131C45.8334 37.7848 44.8396 38.937 43.5251 39.0956C43.123 39.1457 42.7834 39.4304 42.6543 39.8326C42.5272 40.2348 42.6335 40.676 42.9293 40.9674C43.6147 41.6413 43.8897 42.5869 43.6835 43.5609C43.4272 44.7739 42.298 45.6522 40.998 45.6522H21.875C20.1833 45.6522 17.3458 44.824 16.3625 43.7957C16.0646 43.487 15.6146 43.3957 15.2271 43.5609C14.8375 43.7283 14.5833 44.1261 14.5833 44.5652C14.5833 46.3631 13.1812 47.8261 11.4583 47.8261H5.2083C3.48535 47.8261 2.0833 46.3631 2.0833 44.5652V27.1739C2.0833 25.376 3.48535 23.913 5.2083 23.913H14.5833V25C14.5833 25.3761 14.7708 25.7261 15.0791 25.9261C15.3833 26.1174 15.7666 26.1369 16.0916 25.9717L18.1749 24.8847C18.3854 24.776 18.5541 24.5934 18.6541 24.3695L24.9041 10.239C24.9666 10.0956 24.9999 9.93904 24.9999 9.78252V2.76298C25.4333 2.51301 26.1854 2.17388 27.0833 2.17388C28.225 2.17388 31.25 5.13476 31.25 8.69563C31.25 12.5218 29.2542 18.0369 29.2354 18.0913C29.1146 18.4239 29.1562 18.8001 29.35 19.0957C29.5458 19.3892 29.8667 19.5652 30.2083 19.5652H44.5438C46.2812 19.5652 47.7562 20.8631 47.9021 22.5196C48.0125 23.7587 47.4416 24.937 46.4188 25.5957C46.1 25.8 45.9104 26.1696 45.925 26.5631C45.9396 26.9565 46.1562 27.3087 46.4896 27.4892C47.3708 27.9566 47.9166 28.8783 47.9166 29.8913C47.9167 31.263 46.9229 32.4152 45.6063 32.5739Z" fill="#111111"/>
</svg>
